<svg version="1.2" xmlns="http://www.w3.org/2000/svg" viewBox="0 0 261 316" width="261" height="316">
	<title>Machovka-teddy-bear-svg</title>
	<style>
		.s0 { fill: #8a5837;stroke: #000000;stroke-width: .9 } 
		.s1 { fill: #252621;stroke: #000000;stroke-width: .9 } 
		.s2 { fill: #d8c79b;stroke: #000000;stroke-width: .9 } 
		.s3 { fill: #352727;stroke: #000000;stroke-width: .9 } 
		.s4 { fill: #beb386;stroke: #000000;stroke-width: .9 } 
		.s5 { fill: #433127;stroke: #000000;stroke-width: .9 } 
		.s6 { fill: #e5cbf3;stroke: #000000;stroke-width: .9 } 
		.s7 { fill: none;stroke: #000000;stroke-width: .9 } 
	</style>
	<g id="g2885">
		<path id="path10229" fill-rule="evenodd" class="s0" d="m149 153.4c16.4-2.6 32.9-11.2 47.1-21.2 10.3-10.9 14.3-26.4 18.2-40.7 3.6-13.9-1.6-28.1-10-38.8-6.2-7.9-11-19-20.8-22.3-11.3-2.6-16.9-14.6-22.1-23.4-9.5-3-19.8-3.3-29.7-3.3-19.8 0.5-35.6 15-49.6 28.1-10.8 9.9-20.6 23.3-19.9 39.2-1.5 18.5-2.1 39.1 9.6 54.4 9.4 13.1 24.3 21.4 39.4 24.7 12.6 0.5 25.5 5.2 37.8 3.3z"/>
		<path id="path10231" fill-rule="evenodd" class="s1" d="m98.4 86.3l-2.6-3.6-5.2-3.4-4 0.4-1.6 3 1 3.8c0 0 2.7 3.4 3.6 4.2 1.2 1 5.4 1 5.4 1z"/>
		<path id="path10233" fill-rule="evenodd" class="s1" d="m144.8 82.9l1.6-2.3c0 0 1.2-2.5 3-3 1.8-0.4 2.8-1 4.6-1 1.8 0 3.6 0.8 5.2 1 1.6 0.3 2.8 6.8 2.8 6.8 0 0-2.4 6.3-3.4 6.5-1 0.2-4.8 2.3-4.8 2.3l-5.2-5.2z"/>
		<path id="path10235" fill-rule="evenodd" class="s2" d="m144.4 83.1l-6.4-2.9-11-1.3h-11.4l-8.2 2.7-7.4 3.6-2 1.9-3.8 6.5-3.4 6.8-1 10.1 0.8 9c0 0 0.4 1.7 4.6 5.7 4.2 4 8.2 7.6 8.2 7.6l12.4 4.4 8 0.4 9.6-0.2 8.6-3.1 7.4-4 6.2-6.6c0 0 2.2-7.8 2.2-8.6 0-0.8-0.6-9.5-0.6-9.5l-2.4-8c0 0-1.8-4.2-2.4-5.2-0.6-1.1-3.2-4.2-4.2-5.3-1-1-4.6-4.2-3.8-4z"/>
		<path id="path10237" fill-rule="evenodd" class="s3" d="m132.8 101.4l-3.8-2.9-4.6-2.6h-6.6l-5.2 0.7-4.2 1.7-2 5.4 1.2 5.5 3.6 4 4.6 3.6 5.6 1.5 2.6-2.6c0 0 3.1-1.6 4.2-2.9 1.4-1.7 2.1-3.3 2.8-4 0.8-0.9 1.6-3.2 1.6-3.2z"/>
		<path id="path10239" fill-rule="evenodd" class="s4" d="m163.7 6.1l5.4-2.8 5.1-2.1 5.8-0.8 8.9 1.1 10.3 3.1 10.5 4.6c0 0 7.3 7.2 8.6 8.4 1.2 1.1 2.9 8.1 2.9 8.1l1.7 14-1.8 7.6-5.4 9.7-3.4 7.1-0.4 0.8-12.6-19.8-13-14.7-2.9 0.3h-2.9c0 0-1.2-0.3-2.2-1.5-1-1.2-1.9-1.1-2.4-2.1-0.6-1.1-0.9-2.1-2-2.8-1.1-0.8-1.6-0.9-2.3-1.8-0.7-0.9-2.8-2.1-3.8-3.3-1-1.2-2.5-3.1-2.5-3.1 0 0-0.7-3.2-1-3.9-0.3-0.7-1.6-4-1.6-4z"/>
		<path id="path10241" fill-rule="evenodd" class="s5" d="m186.6 29.6c0 0 0.3-5.2 0.3-6.1v-4.9c0-1 0.8-2.5 1.5-2.5 0.8 0 3.3 2.9 5.1 3.7 1.9 0.7 8.7 5.6 9.9 6.8 1.3 1.2 4.3 7.5 4.3 8.8 0 1.4-0.7 5.5-1.4 6.7-0.8 1.2-1.2 3.9-2.4 4.3-1.3 0.5-3.4 0.6-3.4 0.6l-9.4-11.6-4.2-4.9z"/>
		<path id="path10243" fill-rule="evenodd" class="s4" d="m97.4 17.7c0 0-8.6-3.7-9.3-3.9-0.7-0.1-6.8-2-6.8-2l-3.7-0.5c0 0-5.3-0.4-5.9-0.3-0.6 0.2-6.4 1.1-6.4 1.1 0 0-3.8 3.4-4.8 3.8-1 0.5-6 7.8-6 7.8l-4 7.8-1.6 8.2 0.2 6.4 2.2 7.8 4.1 10.5 6.4 5.5 1-10.4 7.3-14.9 12.1-13.9z"/>
		<path id="path10245" fill-rule="evenodd" class="s5" d="m73 36.6c0-0.9-1.9-3.1-2.6-4.5-0.7-1.3-1.4-1.9-2.4-2.2-1-0.3-2.7 0.2-3.1 0.9-0.4 0.7-1.8 4.3-2.5 4.9-0.7 0.6-3.8 5.5-4 6.9-0.1 1.3-1.3 8.9-1.3 8.9 0 0 2.3 4.6 3.3 4.7 1 0.2 2.7-0.5 3.1-1.7 0.4-1.2 3.5-4.1 3.7-5.4 0.1-1.3 0.5-2.5 1-4 0.4-1.5 1.1-2.7 1.9-3.7 0.9-1.1 2.2-2.3 2.3-3 0.1-0.8 0.3-1.5 0.6-1.8z"/>
		<path id="path10247" fill-rule="evenodd" class="s6" d="m78.8 134.9q-8.1 5.4-16.2 10.9c9 10.4 8.2 19.5 16.8 30.3 1.8 3.9-7.2 12.3-5.7 13-1 9.3 6 8.6 5 17.9-1.1 3.1 11.4-0.5 8.7 1.5-2.2 1.8-3.7 3.6-0.4 5.1 4.2 3.5 8.1 7.7 12.5 10.8 6.1 2.1 11.9 5.7 18.5 5.9 5.9 0.6 11.8 2 17.7 2.1 10.3-1.5 20.7-2.4 31-4.2 7.8-2.7 15.8-4.8 23.5-7.8 1.9-1.1-3.8-1.5-5.1-2.3-3.4-1.2-7-2.1-10.1-4-5.4-4.7-6.4-12.3-5.8-19.2 0.8-7 1.3-14.3 5-20.5 3.4-6.5 12.9-5.6 19.1-7.8 5.4-1 10.8-1.4 16.2-0.9 4.4 0.2 9.1 0.2 13.3 1q5 4.7 10 9.4c-2.5-6.3-4.8-12.8-8.5-18.4-2.4-4.4-4.8-8.8-8.4-12.1-4.3-5.1-11.1-6.5-16.9-8.7-2.5-0.3-5.2-1.9-7.6-1.2-6.4 3.6-12.9 6.9-19.8 9.3-7.9 3.2-15.9 6.6-24 9-13.4-2.4-26.9-3.4-40.4-4.2-6.5-2.9-13.2-5.4-19.3-8.9-2.9-1.9-5.5-4.8-8.5-6.1h-0.4z"/>
		<path id="path10249" fill-rule="evenodd" class="s0" d="m83.3 177.3l-20.4-31-4.3 0.1-7.8 2.3c0 0-4.3 3.7-4.7 4.6-0.4 0.9-3.5 4.9-4.4 5.2-0.8 0.3-5.9 11.3-5.9 11.3l-1.7 6.4-2.4 8.9c0 0-0.3 7.5 0 8.2 0.3 0.7 1.1 6.1 1.4 7.1 0.3 1.1 8.4 9.6 8.4 9.6l9 10.7 7.8 1.3-7.5-1.2-2.1 1.7-4.6-5.8c0 0-2.9-3.2-4.3-3.2-1.5 0-8.1-1.2-8.1-1.2 0 0-7.4-1.1-8.6-1.1-1.3 0-5.1-0.9-6 0-0.8 0.8-11 11.9-11 11.9l11.6 1.7 15 7.2 10.4 9.8 1.5 11.6 4.5 33.9c0 0 0 8.4-0.9 9.6-0.8 1.2-4.2 3.8-4.2 5 0 1.2-0.3 3 0.8 3 1.2 0 6.3 0.3 7.4 0.3 1.1 0 11.6-2.7 11.6-2.7 0 0 39.8-26.8 41.3-27.1 1.4-0.3 23.1 1.2 24.3 1.5 1.1 0.3 8.7 3.3 8.7 3.3l26.6-0.3 17.5 19c0 0 9.9 9 11.1 9 1.1 0 13.2 5.3 13.2 5.3 0 0 2.6 1.2 2-0.3-0.5-1.4-4.8-6.8-4.8-8.3 0-1.5-2.5-11-2.5-11l-0.9-18.8c0 0 0.6-8.6 1.2-9.8 0.5-1.2 3.9-10.1 3.9-10.1l5.1-9.5 7.9-7.5c0 0 6.2-2.3 7.4-2.3h9.3c1.1 0 5.4 0.6 8.2 0.6 2.8 0 12.7 5 12.7 5l3.4 3.6-2.5-9.8-4.8-8.7-10.5-4.7h-6.8-9.9-2.3l-0.2-3.3c0 0 5.9-5.7 6.5-6.8 0.5-1.2 2.5-8.4 2.5-8.4l4.8-10.4c0 0-0.4-7.6-0.5-8.5-0.2-0.9-1.5-4.4-2.2-5.6-0.7-1.2-1.8-3-2.2-3.8-0.5-0.7-8.1-7.8-8.1-7.8l-19.9-1.4-11.2 1.4-15.4 4.1-2.7 4-2.8 7.8-1.1 8.5-0.9 6.1 0.2 8.3 4.8 8.2 17.4 6.1-2.3 0.9-11 3.7c0 0-12.9 4-13.6 4-0.7 0-30.4 3.4-29.8 3.4 0.5 0-20.9-2.3-20.9-2.3l-15.4-6-7.7-10-9.9-8.4c0 0-9.9 4.3-2.4-2.6 10-9.3 5.3-21.2 5.3-21.2l-1.7-3.8z"/>
		<path id="path10251" class="s7" d="m58 222c0 0 5.4-1 6.6-1.3 1.2-0.2 7.8-3.3 8.6-4.8 0.8-1.5 3.2-4.6 4-6.3 0.8-1.7 1.4-6.5 1.4-6.5"/>
		<path id="path10253" class="s7" d="m222.5 217.8l-7.2 1.9c0 0-6.2 0.6-8.6 0.6h-10l-6-0.6"/>
		<path id="path10255" fill-rule="evenodd" class="s4" d="m44 301.1c0 0-4.2 0.7-5 0.5-0.8-0.3-5.6-2.2-5.6-2.2l-10-7.1-7.8-10.5-7.8-13.7c0 0-3.4-7.8-3.6-8.6-0.2-0.9-3.8-15.6-3.8-17.3 0-1.7 0.2-7.2 0.2-7.2l2-5.6 3-6.3 13.4 1.9 14.2 7.1 10.2 9.3 6 45.8-1.2 9.7c0 0-4.2 4.2-4.2 4.2z"/>
		<path id="path10259" fill-rule="evenodd" class="s4" d="m209.3 314.6l11.2-0.4 10.2 0.4c0 0 7.8-5.1 8.6-5.7 0.8-0.6 5.2-4.8 5.2-5.7 0-0.8 8.4-21.9 8.4-21.9 0 0 2-14.5 2-15.7 0-1.3 3-8 3.2-9.1 0.2-1 2.2-7.4 2.2-8.4 0-1.1-1.6-4.4-1.6-4.4l-4.4-2.8-9-4-8.2-1.2c0 0-9 0.2-10 0.2-1 0-5.6 0-6.4 0.4-0.8 0.4-6.2 4.9-7.4 6.1-1.2 1.3-4.6 6.7-6.8 9.9-2.2 3.2-5.6 14.1-5.6 14.1 0 0-0.8 12.6-0.6 14.1 0.2 1.5 1 11.2 1 11.2l1.4 9.4 1.6 5.1z"/>
	</g>
</svg>
